<mxfile host="app.diagrams.net" modified="2024-03-26T22:33:10.183Z" agent="Mozilla/5.0 (Macintosh; Intel Mac OS X 10_15_7) AppleWebKit/537.36 (KHTML, like Gecko) Chrome/121.0.0.0 Safari/537.36 OPR/107.0.0.0 (Edition std-1)" etag="Hx1_8IL4xDHIXhxwITrc" version="24.2.0" type="github">
  <diagram name="Page-1" id="SKnOcnim5DMZAANmyY1D">
    <mxGraphModel dx="985" dy="630" grid="1" gridSize="10" guides="1" tooltips="1" connect="1" arrows="1" fold="1" page="1" pageScale="1" pageWidth="850" pageHeight="1100" math="0" shadow="0">
      <root>
        <mxCell id="0" />
        <mxCell id="1" parent="0" />
      </root>
    </mxGraphModel>
  </diagram>
</mxfile>
